<mxfile host="app.diagrams.net" modified="2022-03-28T11:25:21.185Z" agent="5.0 (X11; Linux x86_64) AppleWebKit/537.36 (KHTML, like Gecko) Chrome/99.0.4844.82 Safari/537.36" etag="XQo7dD77m6FJeM6wyMoM" version="17.2.1" type="github">
  <diagram id="mYQ9v2PQexZrmUGCqody" name="Page-1">
    <mxGraphModel dx="1414" dy="817" grid="1" gridSize="10" guides="1" tooltips="1" connect="1" arrows="1" fold="1" page="1" pageScale="1" pageWidth="1169" pageHeight="827" math="0" shadow="0">
      <root>
        <mxCell id="0" />
        <mxCell id="1" parent="0" />
        <mxCell id="TxHa8NDeIoHJXVEvTn0Z-2" value="" style="endArrow=none;html=1;rounded=0;" parent="1" edge="1">
          <mxGeometry width="50" height="50" relative="1" as="geometry">
            <mxPoint y="80" as="sourcePoint" />
            <mxPoint x="1160" y="80" as="targetPoint" />
          </mxGeometry>
        </mxCell>
        <mxCell id="TxHa8NDeIoHJXVEvTn0Z-3" value="Map of ROS" style="text;html=1;strokeColor=none;fillColor=none;align=left;verticalAlign=top;whiteSpace=wrap;rounded=0;fontSize=28;" parent="1" vertex="1">
          <mxGeometry x="40" y="40" width="400" height="30" as="geometry" />
        </mxCell>
        <mxCell id="MWNjnfaUYYlCfx7c9M3N-1" value="&lt;b&gt;&lt;font style=&quot;font-size: 15px&quot;&gt;ROS&lt;/font&gt;&lt;/b&gt;" style="ellipse;whiteSpace=wrap;html=1;aspect=fixed;" parent="1" vertex="1">
          <mxGeometry x="482" y="360" width="200" height="200" as="geometry" />
        </mxCell>
        <mxCell id="MWNjnfaUYYlCfx7c9M3N-2" value="" style="endArrow=none;dashed=1;html=1;dashPattern=1 3;strokeWidth=2;rounded=0;entryX=0;entryY=0;entryDx=0;entryDy=0;" parent="1" target="MWNjnfaUYYlCfx7c9M3N-1" edge="1">
          <mxGeometry width="50" height="50" relative="1" as="geometry">
            <mxPoint x="240" y="120" as="sourcePoint" />
            <mxPoint x="560" y="460" as="targetPoint" />
          </mxGeometry>
        </mxCell>
        <mxCell id="MWNjnfaUYYlCfx7c9M3N-3" value="" style="endArrow=none;dashed=1;html=1;dashPattern=1 3;strokeWidth=2;rounded=0;entryX=1;entryY=0;entryDx=0;entryDy=0;" parent="1" target="MWNjnfaUYYlCfx7c9M3N-1" edge="1">
          <mxGeometry width="50" height="50" relative="1" as="geometry">
            <mxPoint x="920" y="120" as="sourcePoint" />
            <mxPoint x="521.2893218813454" y="399.28932188134536" as="targetPoint" />
          </mxGeometry>
        </mxCell>
        <mxCell id="MWNjnfaUYYlCfx7c9M3N-4" value="" style="endArrow=none;dashed=1;html=1;dashPattern=1 3;strokeWidth=2;rounded=0;entryX=1;entryY=1;entryDx=0;entryDy=0;" parent="1" target="MWNjnfaUYYlCfx7c9M3N-1" edge="1">
          <mxGeometry width="50" height="50" relative="1" as="geometry">
            <mxPoint x="920" y="800" as="sourcePoint" />
            <mxPoint x="662.7106781186549" y="399.28932188134513" as="targetPoint" />
          </mxGeometry>
        </mxCell>
        <mxCell id="MWNjnfaUYYlCfx7c9M3N-5" value="" style="endArrow=none;dashed=1;html=1;dashPattern=1 3;strokeWidth=2;rounded=0;entryX=0;entryY=1;entryDx=0;entryDy=0;" parent="1" target="MWNjnfaUYYlCfx7c9M3N-1" edge="1">
          <mxGeometry width="50" height="50" relative="1" as="geometry">
            <mxPoint x="240" y="800" as="sourcePoint" />
            <mxPoint x="662.7106781186549" y="540.7106781186549" as="targetPoint" />
          </mxGeometry>
        </mxCell>
        <mxCell id="MWNjnfaUYYlCfx7c9M3N-6" value="Core" style="text;html=1;strokeColor=none;fillColor=none;align=center;verticalAlign=middle;whiteSpace=wrap;rounded=0;" parent="1" vertex="1">
          <mxGeometry x="552" y="365" width="60" height="30" as="geometry" />
        </mxCell>
        <mxCell id="MWNjnfaUYYlCfx7c9M3N-7" value="Sensors" style="text;html=1;strokeColor=none;fillColor=none;align=center;verticalAlign=middle;whiteSpace=wrap;rounded=0;" parent="1" vertex="1">
          <mxGeometry x="622" y="445" width="60" height="30" as="geometry" />
        </mxCell>
        <mxCell id="MWNjnfaUYYlCfx7c9M3N-8" value="Simulation" style="text;html=1;strokeColor=none;fillColor=none;align=center;verticalAlign=middle;whiteSpace=wrap;rounded=0;" parent="1" vertex="1">
          <mxGeometry x="485" y="445" width="60" height="30" as="geometry" />
        </mxCell>
        <mxCell id="MWNjnfaUYYlCfx7c9M3N-9" value="Control" style="text;html=1;strokeColor=none;fillColor=none;align=center;verticalAlign=middle;whiteSpace=wrap;rounded=0;" parent="1" vertex="1">
          <mxGeometry x="552" y="530" width="60" height="30" as="geometry" />
        </mxCell>
        <mxCell id="MWNjnfaUYYlCfx7c9M3N-11" value="Bag" style="ellipse;whiteSpace=wrap;html=1;" parent="1" vertex="1">
          <mxGeometry x="542" y="280" width="75" height="50" as="geometry" />
        </mxCell>
        <mxCell id="MWNjnfaUYYlCfx7c9M3N-14" value="Topic" style="ellipse;whiteSpace=wrap;html=1;" parent="1" vertex="1">
          <mxGeometry x="474.5" y="310" width="75" height="50" as="geometry" />
        </mxCell>
        <mxCell id="MWNjnfaUYYlCfx7c9M3N-15" value="Node" style="ellipse;whiteSpace=wrap;html=1;" parent="1" vertex="1">
          <mxGeometry x="607" y="310" width="75" height="50" as="geometry" />
        </mxCell>
        <mxCell id="MWNjnfaUYYlCfx7c9M3N-16" value="Service" style="ellipse;whiteSpace=wrap;html=1;" parent="1" vertex="1">
          <mxGeometry x="614" y="256" width="75" height="50" as="geometry" />
        </mxCell>
        <mxCell id="MWNjnfaUYYlCfx7c9M3N-17" value="Launch" style="ellipse;whiteSpace=wrap;html=1;" parent="1" vertex="1">
          <mxGeometry x="470" y="256" width="75" height="50" as="geometry" />
        </mxCell>
        <mxCell id="MWNjnfaUYYlCfx7c9M3N-18" value="IMU" style="ellipse;whiteSpace=wrap;html=1;" parent="1" vertex="1">
          <mxGeometry x="700" y="348" width="75" height="50" as="geometry" />
        </mxCell>
        <mxCell id="MWNjnfaUYYlCfx7c9M3N-19" value="GPS" style="ellipse;whiteSpace=wrap;html=1;" parent="1" vertex="1">
          <mxGeometry x="700" y="407" width="75" height="50" as="geometry" />
        </mxCell>
        <mxCell id="MWNjnfaUYYlCfx7c9M3N-20" value="Camera" style="ellipse;whiteSpace=wrap;html=1;" parent="1" vertex="1">
          <mxGeometry x="700" y="468" width="75" height="50" as="geometry" />
        </mxCell>
        <mxCell id="MWNjnfaUYYlCfx7c9M3N-21" value="LiDAR" style="ellipse;whiteSpace=wrap;html=1;" parent="1" vertex="1">
          <mxGeometry x="700" y="533" width="75" height="50" as="geometry" />
        </mxCell>
        <mxCell id="MWNjnfaUYYlCfx7c9M3N-22" value="JointState" style="ellipse;whiteSpace=wrap;html=1;" parent="1" vertex="1">
          <mxGeometry x="407" y="650" width="75" height="50" as="geometry" />
        </mxCell>
        <mxCell id="MWNjnfaUYYlCfx7c9M3N-23" value="PCL" style="ellipse;whiteSpace=wrap;html=1;" parent="1" vertex="1">
          <mxGeometry x="760" y="583" width="75" height="50" as="geometry" />
        </mxCell>
        <mxCell id="MWNjnfaUYYlCfx7c9M3N-24" value="Gazebo" style="ellipse;whiteSpace=wrap;html=1;" parent="1" vertex="1">
          <mxGeometry x="407" y="389" width="75" height="50" as="geometry" />
        </mxCell>
        <mxCell id="MWNjnfaUYYlCfx7c9M3N-25" value="Packages" style="ellipse;whiteSpace=wrap;html=1;" parent="1" vertex="1">
          <mxGeometry x="399.5" y="230" width="75" height="50" as="geometry" />
        </mxCell>
        <mxCell id="MWNjnfaUYYlCfx7c9M3N-26" value="COLCON CATKIN" style="ellipse;whiteSpace=wrap;html=1;" parent="1" vertex="1">
          <mxGeometry x="470" y="202" width="75" height="50" as="geometry" />
        </mxCell>
        <mxCell id="MWNjnfaUYYlCfx7c9M3N-27" value="RVIZ" style="ellipse;whiteSpace=wrap;html=1;" parent="1" vertex="1">
          <mxGeometry x="740" y="190" width="75" height="50" as="geometry" />
        </mxCell>
        <mxCell id="MWNjnfaUYYlCfx7c9M3N-28" value="RQT" style="ellipse;whiteSpace=wrap;html=1;" parent="1" vertex="1">
          <mxGeometry x="685" y="230" width="75" height="50" as="geometry" />
        </mxCell>
        <mxCell id="MWNjnfaUYYlCfx7c9M3N-29" value="Moveit" style="ellipse;whiteSpace=wrap;html=1;" parent="1" vertex="1">
          <mxGeometry x="490" y="560" width="75" height="50" as="geometry" />
        </mxCell>
        <mxCell id="MWNjnfaUYYlCfx7c9M3N-30" value="Parameters" style="ellipse;whiteSpace=wrap;html=1;" parent="1" vertex="1">
          <mxGeometry x="542" y="228" width="75" height="50" as="geometry" />
        </mxCell>
        <mxCell id="MWNjnfaUYYlCfx7c9M3N-31" value="Messages" style="ellipse;whiteSpace=wrap;html=1;" parent="1" vertex="1">
          <mxGeometry x="545" y="170" width="75" height="50" as="geometry" />
        </mxCell>
        <mxCell id="MWNjnfaUYYlCfx7c9M3N-32" value="ROSCD&lt;br&gt;ROSWTF" style="ellipse;whiteSpace=wrap;html=1;" parent="1" vertex="1">
          <mxGeometry x="614" y="204" width="75" height="50" as="geometry" />
        </mxCell>
        <mxCell id="MWNjnfaUYYlCfx7c9M3N-33" value="URDF&lt;br&gt;SDF" style="ellipse;whiteSpace=wrap;html=1;" parent="1" vertex="1">
          <mxGeometry x="407" y="445" width="75" height="50" as="geometry" />
        </mxCell>
        <mxCell id="MWNjnfaUYYlCfx7c9M3N-34" value="OpenCV" style="ellipse;whiteSpace=wrap;html=1;" parent="1" vertex="1">
          <mxGeometry x="780" y="468" width="75" height="50" as="geometry" />
        </mxCell>
        <mxCell id="MWNjnfaUYYlCfx7c9M3N-35" value="Navigation" style="ellipse;whiteSpace=wrap;html=1;" parent="1" vertex="1">
          <mxGeometry x="595" y="560" width="75" height="50" as="geometry" />
        </mxCell>
        <mxCell id="MWNjnfaUYYlCfx7c9M3N-36" value="TF" style="ellipse;whiteSpace=wrap;html=1;" parent="1" vertex="1">
          <mxGeometry x="395" y="178" width="75" height="50" as="geometry" />
        </mxCell>
        <mxCell id="MWNjnfaUYYlCfx7c9M3N-37" value="Multiple Systems" style="ellipse;whiteSpace=wrap;html=1;" parent="1" vertex="1">
          <mxGeometry x="670" y="163" width="75" height="50" as="geometry" />
        </mxCell>
        <mxCell id="MWNjnfaUYYlCfx7c9M3N-38" value="CloudSim" style="ellipse;whiteSpace=wrap;html=1;" parent="1" vertex="1">
          <mxGeometry x="340" y="357" width="75" height="50" as="geometry" />
        </mxCell>
        <mxCell id="MWNjnfaUYYlCfx7c9M3N-39" value="Physics" style="ellipse;whiteSpace=wrap;html=1;" parent="1" vertex="1">
          <mxGeometry x="332" y="414" width="75" height="50" as="geometry" />
        </mxCell>
        <mxCell id="MWNjnfaUYYlCfx7c9M3N-40" value="Nodelets" style="ellipse;whiteSpace=wrap;html=1;" parent="1" vertex="1">
          <mxGeometry x="470" y="150" width="75" height="50" as="geometry" />
        </mxCell>
        <mxCell id="MWNjnfaUYYlCfx7c9M3N-41" value="Path Planning" style="ellipse;whiteSpace=wrap;html=1;" parent="1" vertex="1">
          <mxGeometry x="650" y="600" width="75" height="50" as="geometry" />
        </mxCell>
        <mxCell id="MWNjnfaUYYlCfx7c9M3N-42" value="Creating a map" style="ellipse;whiteSpace=wrap;html=1;" parent="1" vertex="1">
          <mxGeometry x="700" y="650" width="75" height="50" as="geometry" />
        </mxCell>
        <mxCell id="MWNjnfaUYYlCfx7c9M3N-43" value="MoveBase" style="ellipse;whiteSpace=wrap;html=1;" parent="1" vertex="1">
          <mxGeometry x="547" y="610" width="75" height="50" as="geometry" />
        </mxCell>
        <mxCell id="MWNjnfaUYYlCfx7c9M3N-44" value="Sensor Fusion" style="ellipse;whiteSpace=wrap;html=1;" parent="1" vertex="1">
          <mxGeometry x="850" y="378" width="75" height="50" as="geometry" />
        </mxCell>
        <mxCell id="MWNjnfaUYYlCfx7c9M3N-45" value="ODOM" style="ellipse;whiteSpace=wrap;html=1;" parent="1" vertex="1">
          <mxGeometry x="765" y="378" width="75" height="50" as="geometry" />
        </mxCell>
        <mxCell id="MWNjnfaUYYlCfx7c9M3N-46" value="Joystick" style="ellipse;whiteSpace=wrap;html=1;" parent="1" vertex="1">
          <mxGeometry x="810" y="230" width="75" height="50" as="geometry" />
        </mxCell>
        <mxCell id="MWNjnfaUYYlCfx7c9M3N-47" value="Teleop" style="ellipse;whiteSpace=wrap;html=1;" parent="1" vertex="1">
          <mxGeometry x="860" y="190" width="75" height="50" as="geometry" />
        </mxCell>
        <mxCell id="MWNjnfaUYYlCfx7c9M3N-48" value="Stage" style="ellipse;whiteSpace=wrap;html=1;" parent="1" vertex="1">
          <mxGeometry x="290" y="252" width="75" height="50" as="geometry" />
        </mxCell>
        <mxCell id="MWNjnfaUYYlCfx7c9M3N-49" value="Unreal" style="ellipse;whiteSpace=wrap;html=1;" parent="1" vertex="1">
          <mxGeometry x="324.5" y="550" width="75" height="50" as="geometry" />
        </mxCell>
        <mxCell id="MWNjnfaUYYlCfx7c9M3N-50" value="Inverse Kinematics" style="ellipse;whiteSpace=wrap;html=1;" parent="1" vertex="1">
          <mxGeometry x="440" y="600" width="75" height="50" as="geometry" />
        </mxCell>
        <mxCell id="MWNjnfaUYYlCfx7c9M3N-51" value="State Estimation" style="ellipse;whiteSpace=wrap;html=1;" parent="1" vertex="1">
          <mxGeometry x="620" y="650" width="75" height="50" as="geometry" />
        </mxCell>
        <mxCell id="MWNjnfaUYYlCfx7c9M3N-52" value="GUI Packages" style="ellipse;whiteSpace=wrap;html=1;" parent="1" vertex="1">
          <mxGeometry x="940" y="199" width="75" height="50" as="geometry" />
        </mxCell>
        <mxCell id="MWNjnfaUYYlCfx7c9M3N-53" value="Web Interface" style="ellipse;whiteSpace=wrap;html=1;" parent="1" vertex="1">
          <mxGeometry x="885" y="240" width="75" height="50" as="geometry" />
        </mxCell>
        <mxCell id="MWNjnfaUYYlCfx7c9M3N-54" value="Robots" style="ellipse;whiteSpace=wrap;html=1;" parent="1" vertex="1">
          <mxGeometry x="115" y="575" width="75" height="50" as="geometry" />
        </mxCell>
        <mxCell id="MWNjnfaUYYlCfx7c9M3N-55" value="Clearpath" style="ellipse;whiteSpace=wrap;html=1;" parent="1" vertex="1">
          <mxGeometry x="40" y="539" width="75" height="50" as="geometry" />
        </mxCell>
        <mxCell id="MWNjnfaUYYlCfx7c9M3N-56" value="TurtleBot" style="ellipse;whiteSpace=wrap;html=1;" parent="1" vertex="1">
          <mxGeometry x="40" y="600" width="75" height="50" as="geometry" />
        </mxCell>
        <mxCell id="MWNjnfaUYYlCfx7c9M3N-57" value="Drones" style="ellipse;whiteSpace=wrap;html=1;" parent="1" vertex="1">
          <mxGeometry x="115" y="315" width="75" height="50" as="geometry" />
        </mxCell>
        <mxCell id="MWNjnfaUYYlCfx7c9M3N-58" value="Linux" style="ellipse;whiteSpace=wrap;html=1;" parent="1" vertex="1">
          <mxGeometry x="185" y="418" width="75" height="50" as="geometry" />
        </mxCell>
        <mxCell id="MWNjnfaUYYlCfx7c9M3N-59" value="Rapsberry pi" style="ellipse;whiteSpace=wrap;html=1;" parent="1" vertex="1">
          <mxGeometry x="110" y="389" width="75" height="50" as="geometry" />
        </mxCell>
        <mxCell id="MWNjnfaUYYlCfx7c9M3N-60" value="Jetson" style="ellipse;whiteSpace=wrap;html=1;" parent="1" vertex="1">
          <mxGeometry x="110" y="445" width="75" height="50" as="geometry" />
        </mxCell>
        <mxCell id="MWNjnfaUYYlCfx7c9M3N-61" value="x86" style="ellipse;whiteSpace=wrap;html=1;" parent="1" vertex="1">
          <mxGeometry x="40" y="418" width="75" height="50" as="geometry" />
        </mxCell>
        <mxCell id="wjIrcY8TM1LImqf2KLqx-1" value="AMCL" style="ellipse;whiteSpace=wrap;html=1;" vertex="1" parent="1">
          <mxGeometry x="532" y="660" width="75" height="50" as="geometry" />
        </mxCell>
      </root>
    </mxGraphModel>
  </diagram>
</mxfile>
